<?xml version="1.0" encoding="utf-8"?>
<!-- Generator: Adobe Illustrator 27.3.1, SVG Export Plug-In . SVG Version: 6.00 Build 0)  -->
<svg version="1.1" id="Layer_1" xmlns="http://www.w3.org/2000/svg" xmlns:xlink="http://www.w3.org/1999/xlink" x="0px" y="0px"
	 viewBox="0 0 1200 800" style="enable-background:new 0 0 1200 800;" xml:space="preserve">
<style type="text/css">
	.st0{fill:#1F4899;}
</style>
<path class="st0" d="M578.4,430.9h43.2V268.3h-43.2V430.9z M809.4,268.3v33.9h54.4v128.7h43.2V302.2h54.4v-33.9H809.4z M749.2,332.7
	h-36.1c-9.6,0-17.4-4-17.4-15.2c0-11.3,7.8-15.2,17.4-15.2h77.7v-33.9h-82.8c-30.9,0-56,17.8-56,49.1c0,31.3,25.1,49.1,56,49.1h37.2
	c9.6,0,17.4,4,17.4,15.3c0,11.3-7.8,15.2-17.4,15.2H658v33.9h91.2c30.9,0,56-17.8,56-49.1C805.1,350.6,780.1,332.7,749.2,332.7
	 M446.9,268.3l-61.1,146.3l-58.3-65l72.9-81.3H351l-69,77.2v-77.2h-43.2v162.6h43.2v-77.2l69,77.2h71.9l49.5-122.6l35.9,90.1h-57.1
	l13.6,32.5h101l-67.9-162.6H446.9z"/>
</svg>
